<svg width="260" height="90" viewBox="0 0 260 90" fill="none" xmlns="http://www.w3.org/2000/svg">
<g filter="url(#filter0_f_648_10935)">
<ellipse cx="214" cy="45" rx="42" ry="41" fill="url(#paint0_radial_648_10935)"/>
</g>
<path d="M210 55.6667C215.891 55.6667 220.667 50.891 220.667 45C220.667 39.109 215.891 34.3333 210 34.3333C204.109 34.3333 199.333 39.109 199.333 45C199.333 50.891 204.109 55.6667 210 55.6667ZM5.25 47C6.35457 47 7.25 46.1046 7.25 45C7.25 43.8954 6.35457 43 5.25 43V47ZM15.75 43C14.6454 43 13.75 43.8954 13.75 45C13.75 46.1046 14.6454 47 15.75 47V43ZM26.25 47C27.3546 47 28.25 46.1046 28.25 45C28.25 43.8954 27.3546 43 26.25 43V47ZM36.75 43C35.6454 43 34.75 43.8954 34.75 45C34.75 46.1046 35.6454 47 36.75 47V43ZM47.25 47C48.3546 47 49.25 46.1046 49.25 45C49.25 43.8954 48.3546 43 47.25 43V47ZM57.75 43C56.6454 43 55.75 43.8954 55.75 45C55.75 46.1046 56.6454 47 57.75 47V43ZM68.25 47C69.3546 47 70.25 46.1046 70.25 45C70.25 43.8954 69.3546 43 68.25 43V47ZM78.75 43C77.6454 43 76.75 43.8954 76.75 45C76.75 46.1046 77.6454 47 78.75 47V43ZM89.25 47C90.3546 47 91.25 46.1046 91.25 45C91.25 43.8954 90.3546 43 89.25 43V47ZM99.75 43C98.6454 43 97.75 43.8954 97.75 45C97.75 46.1046 98.6454 47 99.75 47V43ZM110.25 47C111.355 47 112.25 46.1046 112.25 45C112.25 43.8954 111.355 43 110.25 43V47ZM120.75 43C119.645 43 118.75 43.8954 118.75 45C118.75 46.1046 119.645 47 120.75 47V43ZM131.25 47C132.355 47 133.25 46.1046 133.25 45C133.25 43.8954 132.355 43 131.25 43V47ZM141.75 43C140.645 43 139.75 43.8954 139.75 45C139.75 46.1046 140.645 47 141.75 47V43ZM152.25 47C153.355 47 154.25 46.1046 154.25 45C154.25 43.8954 153.355 43 152.25 43V47ZM162.75 43C161.645 43 160.75 43.8954 160.75 45C160.75 46.1046 161.645 47 162.75 47V43ZM173.25 47C174.355 47 175.25 46.1046 175.25 45C175.25 43.8954 174.355 43 173.25 43V47ZM183.75 43C182.645 43 181.75 43.8954 181.75 45C181.75 46.1046 182.645 47 183.75 47V43ZM194.25 47C195.355 47 196.25 46.1046 196.25 45C196.25 43.8954 195.355 43 194.25 43V47ZM204.75 43C203.645 43 202.75 43.8954 202.75 45C202.75 46.1046 203.645 47 204.75 47V43ZM0 47H5.25V43H0L0 47ZM15.75 47H26.25V43H15.75V47ZM36.75 47H47.25V43H36.75V47ZM57.75 47L68.25 47V43L57.75 43V47ZM78.75 47H89.25V43H78.75V47ZM99.75 47H110.25V43H99.75V47ZM120.75 47H131.25V43H120.75V47ZM141.75 47H152.25V43H141.75V47ZM162.75 47L173.25 47V43L162.75 43V47ZM183.75 47H194.25V43H183.75V47ZM204.75 47H210V43H204.75V47Z" fill="url(#paint1_linear_648_10935)"/>
<defs>
<filter id="filter0_f_648_10935" x="168" y="0" width="92" height="90" filterUnits="userSpaceOnUse" color-interpolation-filters="sRGB">
<feFlood flood-opacity="0" result="BackgroundImageFix"/>
<feBlend mode="normal" in="SourceGraphic" in2="BackgroundImageFix" result="shape"/>
<feGaussianBlur stdDeviation="2" result="effect1_foregroundBlur_648_10935"/>
</filter>
<radialGradient id="paint0_radial_648_10935" cx="0" cy="0" r="1" gradientUnits="userSpaceOnUse" gradientTransform="translate(214 45) rotate(90) scale(41 42)">
<stop stop-color="#FCA37D"/>
<stop offset="0.540625" stop-color="#FCA37D" stop-opacity="0.12"/>
</radialGradient>
<linearGradient id="paint1_linear_648_10935" x1="-12.7174" y1="45.5001" x2="210" y2="45.3937" gradientUnits="userSpaceOnUse">
<stop stop-color="#E99953" stop-opacity="0.35"/>
<stop offset="1" stop-color="#E99953"/>
</linearGradient>
</defs>
</svg>
