<svg width="1232" height="78" viewBox="0 0 1232 78" fill="none" xmlns="http://www.w3.org/2000/svg">
<rect width="78" height="78" fill="url(#paint0_radial_887_15996)"/>
<mask id="mask0_887_15996" style="mask-type:alpha" maskUnits="userSpaceOnUse" x="0" y="0" width="78" height="78">
<rect width="78" height="78" fill="#D9D9D9"/>
</mask>
<g mask="url(#mask0_887_15996)">
<path d="M16.7299 15.3269C20.0041 12.2459 23.6656 9.97182 27.7146 8.50463C31.7635 7.03744 35.8554 6.36668 39.99 6.49235C44.1247 6.61802 48.1682 7.53604 52.1206 9.24642C56.073 10.9568 59.5897 13.4491 62.6706 16.7232C63.6729 17.7883 64.5876 18.8986 65.4146 20.0542C66.2417 21.2097 66.9811 22.4105 67.633 23.6565C66.4474 23.5822 65.2675 23.6325 64.0935 23.8076C62.9194 23.9827 61.7894 24.2836 60.7035 24.7105C60.2627 24.084 59.8214 23.4766 59.3794 22.8884C58.9374 22.3002 58.4566 21.7299 57.9369 21.1776C52.9628 15.8917 46.9153 13.1405 39.7945 12.9241C32.6737 12.7076 26.4703 15.0865 21.1844 20.0606C15.8984 25.0347 13.1472 31.0822 12.9308 38.203C12.7143 45.3238 15.0932 51.5272 20.0673 56.8132C25.0414 62.0991 31.0889 64.8504 38.2097 65.0668C45.3305 65.2832 51.5339 62.9044 56.8199 57.9302C57.3722 57.4105 57.8867 56.8706 58.3636 56.3103C58.8404 55.75 59.3179 55.1705 59.7959 54.5719C60.8539 55.0639 61.9635 55.433 63.1248 55.679C64.286 55.9251 65.4607 56.047 66.6486 56.0448C65.9223 57.2489 65.1113 58.4026 64.2155 59.5058C63.3198 60.609 62.3394 61.6617 61.2743 62.6639C58.0002 65.7449 54.3386 68.019 50.2897 69.4862C46.2407 70.9534 42.1489 71.6241 38.0142 71.4985C33.8796 71.3728 29.8361 70.4548 25.8837 68.7444C21.9313 67.034 18.4146 64.5418 15.3336 61.2676C12.2526 57.9935 9.97853 54.3319 8.51135 50.283C7.04416 46.234 6.3734 42.1422 6.49906 38.0075C6.62473 33.8729 7.54275 29.8293 9.25313 25.877C10.9635 21.9246 13.4558 18.4079 16.7299 15.3269ZM59.466 46.5149C57.61 44.5425 56.7227 42.2164 56.8042 39.5365C56.8856 36.8566 57.9125 34.5887 59.8849 32.7326C61.8573 30.8766 64.1834 29.9893 66.8633 30.0708C69.5432 30.1522 71.8111 31.1792 73.6671 33.1515C75.5231 35.1239 76.4104 37.45 76.329 40.1299C76.2475 42.8098 75.2206 45.0777 73.2482 46.9338C71.2759 48.7898 68.9497 49.6771 66.2698 49.5956C63.59 49.5142 61.322 48.4872 59.466 46.5149Z" fill="#E99953"/>
</g>
<path d="M67 28.3333C61.1089 28.3333 56.3333 33.109 56.3333 39C56.3333 44.891 61.1089 49.6667 67 49.6667C72.891 49.6667 77.6666 44.891 77.6666 39C77.6666 33.109 72.891 28.3333 67 28.3333ZM1226.5 37C1225.4 37 1224.5 37.8954 1224.5 39C1224.5 40.1046 1225.4 41 1226.5 41V37ZM1215.51 41C1216.62 41 1217.51 40.1046 1217.51 39C1217.51 37.8954 1216.62 37 1215.51 37V41ZM1204.52 37C1203.42 37 1202.52 37.8954 1202.52 39C1202.52 40.1046 1203.42 41 1204.52 41V37ZM1193.53 41C1194.64 41 1195.53 40.1046 1195.53 39C1195.53 37.8954 1194.64 37 1193.53 37V41ZM1182.54 37C1181.44 37 1180.54 37.8954 1180.54 39C1180.54 40.1046 1181.44 41 1182.54 41V37ZM1171.55 41C1172.66 41 1173.55 40.1046 1173.55 39C1173.55 37.8954 1172.66 37 1171.55 37V41ZM1160.56 37C1159.46 37 1158.56 37.8954 1158.56 39C1158.56 40.1046 1159.46 41 1160.56 41V37ZM1149.57 41C1150.68 41 1151.57 40.1046 1151.57 39C1151.57 37.8954 1150.68 37 1149.57 37V41ZM1138.58 37C1137.48 37 1136.58 37.8954 1136.58 39C1136.58 40.1046 1137.48 41 1138.58 41V37ZM1127.59 41C1128.69 41 1129.59 40.1046 1129.59 39C1129.59 37.8954 1128.69 37 1127.59 37V41ZM1116.6 37C1115.49 37 1114.6 37.8954 1114.6 39C1114.6 40.1046 1115.49 41 1116.6 41V37ZM1105.61 41C1106.71 41 1107.61 40.1046 1107.61 39C1107.61 37.8954 1106.71 37 1105.61 37V41ZM1094.62 37C1093.51 37 1092.62 37.8954 1092.62 39C1092.62 40.1046 1093.51 41 1094.62 41V37ZM1083.63 41C1084.73 41 1085.63 40.1046 1085.63 39C1085.63 37.8954 1084.73 37 1083.63 37V41ZM1072.64 37C1071.53 37 1070.64 37.8954 1070.64 39C1070.64 40.1046 1071.53 41 1072.64 41V37ZM1061.65 41C1062.75 41 1063.65 40.1046 1063.65 39C1063.65 37.8954 1062.75 37 1061.65 37V41ZM1050.66 37C1049.55 37 1048.66 37.8954 1048.66 39C1048.66 40.1046 1049.55 41 1050.66 41V37ZM1039.67 41C1040.77 41 1041.67 40.1046 1041.67 39C1041.67 37.8954 1040.77 37 1039.67 37V41ZM1028.67 37C1027.57 37 1026.67 37.8954 1026.67 39C1026.67 40.1046 1027.57 41 1028.67 41V37ZM1017.68 41C1018.79 41 1019.68 40.1046 1019.68 39C1019.68 37.8954 1018.79 37 1017.68 37V41ZM1006.69 37C1005.59 37 1004.69 37.8954 1004.69 39C1004.69 40.1046 1005.59 41 1006.69 41V37ZM995.703 41C996.807 41 997.703 40.1046 997.703 39C997.703 37.8954 996.807 37 995.703 37V41ZM984.712 37C983.608 37 982.712 37.8954 982.712 39C982.712 40.1046 983.608 41 984.712 41V37ZM973.722 41C974.826 41 975.722 40.1046 975.722 39C975.722 37.8954 974.826 37 973.722 37V41ZM962.731 37C961.626 37 960.731 37.8954 960.731 39C960.731 40.1046 961.626 41 962.731 41V37ZM951.741 41C952.845 41 953.741 40.1046 953.741 39C953.741 37.8954 952.845 37 951.741 37V41ZM940.75 37C939.645 37 938.75 37.8954 938.75 39C938.75 40.1046 939.645 41 940.75 41V37ZM929.759 41C930.864 41 931.759 40.1046 931.759 39C931.759 37.8954 930.864 37 929.759 37V41ZM918.769 37C917.664 37 916.769 37.8954 916.769 39C916.769 40.1046 917.664 41 918.769 41V37ZM907.778 41C908.883 41 909.778 40.1046 909.778 39C909.778 37.8954 908.883 37 907.778 37V41ZM896.788 37C895.683 37 894.788 37.8954 894.788 39C894.788 40.1046 895.683 41 896.788 41V37ZM885.797 41C886.902 41 887.797 40.1046 887.797 39C887.797 37.8954 886.902 37 885.797 37V41ZM874.807 37C873.702 37 872.807 37.8954 872.807 39C872.807 40.1046 873.702 41 874.807 41V37ZM863.816 41C864.921 41 865.816 40.1046 865.816 39C865.816 37.8954 864.921 37 863.816 37V41ZM852.825 37C851.721 37 850.825 37.8954 850.825 39C850.825 40.1046 851.721 41 852.825 41V37ZM841.835 41C842.939 41 843.835 40.1046 843.835 39C843.835 37.8954 842.939 37 841.835 37V41ZM830.844 37C829.74 37 828.844 37.8954 828.844 39C828.844 40.1046 829.74 41 830.844 41V37ZM819.854 41C820.958 41 821.854 40.1046 821.854 39C821.854 37.8954 820.958 37 819.854 37V41ZM808.863 37C807.759 37 806.863 37.8954 806.863 39C806.863 40.1046 807.759 41 808.863 41V37ZM797.873 41C798.977 41 799.873 40.1046 799.873 39C799.873 37.8954 798.977 37 797.873 37V41ZM786.882 37C785.777 37 784.882 37.8954 784.882 39C784.882 40.1046 785.777 41 786.882 41V37ZM775.891 41C776.996 41 777.891 40.1046 777.891 39C777.891 37.8954 776.996 37 775.891 37V41ZM764.901 37C763.796 37 762.901 37.8954 762.901 39C762.901 40.1046 763.796 41 764.901 41V37ZM753.91 41C755.015 41 755.91 40.1046 755.91 39C755.91 37.8954 755.015 37 753.91 37V41ZM742.92 37C741.815 37 740.92 37.8954 740.92 39C740.92 40.1046 741.815 41 742.92 41V37ZM731.929 41C733.034 41 733.929 40.1046 733.929 39C733.929 37.8954 733.034 37 731.929 37V41ZM720.939 37C719.834 37 718.939 37.8954 718.939 39C718.939 40.1046 719.834 41 720.939 41V37ZM709.948 41C711.053 41 711.948 40.1046 711.948 39C711.948 37.8954 711.053 37 709.948 37V41ZM698.957 37C697.853 37 696.957 37.8954 696.957 39C696.957 40.1046 697.853 41 698.957 41V37ZM687.967 41C689.071 41 689.967 40.1046 689.967 39C689.967 37.8954 689.071 37 687.967 37V41ZM676.976 37C675.872 37 674.976 37.8954 674.976 39C674.976 40.1046 675.872 41 676.976 41V37ZM665.986 41C667.09 41 667.986 40.1046 667.986 39C667.986 37.8954 667.09 37 665.986 37V41ZM654.995 37C653.891 37 652.995 37.8954 652.995 39C652.995 40.1046 653.891 41 654.995 41V37ZM644.005 41C645.109 41 646.005 40.1046 646.005 39C646.005 37.8954 645.109 37 644.005 37V41ZM633.014 37C631.91 37 631.014 37.8954 631.014 39C631.014 40.1046 631.91 41 633.014 41V37ZM622.024 41C623.128 41 624.024 40.1046 624.024 39C624.024 37.8954 623.128 37 622.024 37V41ZM611.033 37C609.929 37 609.033 37.8954 609.033 39C609.033 40.1046 609.929 41 611.033 41V37ZM600.043 41C601.147 41 602.043 40.1046 602.043 39C602.043 37.8954 601.147 37 600.043 37V41ZM589.052 37C587.948 37 587.052 37.8954 587.052 39C587.052 40.1046 587.948 41 589.052 41V37ZM578.061 41C579.166 41 580.061 40.1046 580.061 39C580.061 37.8954 579.166 37 578.061 37V41ZM567.071 37C565.966 37 565.071 37.8954 565.071 39C565.071 40.1046 565.966 41 567.071 41V37ZM556.08 41C557.185 41 558.08 40.1046 558.08 39C558.08 37.8954 557.185 37 556.08 37V41ZM545.09 37C543.985 37 543.09 37.8954 543.09 39C543.09 40.1046 543.985 41 545.09 41V37ZM534.099 41C535.204 41 536.099 40.1046 536.099 39C536.099 37.8954 535.204 37 534.099 37V41ZM523.109 37C522.004 37 521.109 37.8954 521.109 39C521.109 40.1046 522.004 41 523.109 41V37ZM512.118 41C513.223 41 514.118 40.1046 514.118 39C514.118 37.8954 513.223 37 512.118 37V41ZM501.128 37C500.023 37 499.128 37.8954 499.128 39C499.128 40.1046 500.023 41 501.128 41V37ZM490.137 41C491.242 41 492.137 40.1046 492.137 39C492.137 37.8954 491.242 37 490.137 37V41ZM479.147 37C478.042 37 477.147 37.8954 477.147 39C477.147 40.1046 478.042 41 479.147 41V37ZM468.156 41C469.261 41 470.156 40.1046 470.156 39C470.156 37.8954 469.261 37 468.156 37V41ZM457.166 37C456.061 37 455.166 37.8954 455.166 39C455.166 40.1046 456.061 41 457.166 41V37ZM446.175 41C447.28 41 448.175 40.1046 448.175 39C448.175 37.8954 447.28 37 446.175 37V41ZM435.184 37C434.08 37 433.184 37.8954 433.184 39C433.184 40.1046 434.08 41 435.184 41V37ZM424.194 41C425.299 41 426.194 40.1046 426.194 39C426.194 37.8954 425.299 37 424.194 37V41ZM413.203 37C412.099 37 411.203 37.8954 411.203 39C411.203 40.1046 412.099 41 413.203 41V37ZM402.213 41C403.317 41 404.213 40.1046 404.213 39C404.213 37.8954 403.317 37 402.213 37V41ZM391.222 37C390.118 37 389.222 37.8954 389.222 39C389.222 40.1046 390.118 41 391.222 41V37ZM380.232 41C381.336 41 382.232 40.1046 382.232 39C382.232 37.8954 381.336 37 380.232 37V41ZM369.241 37C368.137 37 367.241 37.8954 367.241 39C367.241 40.1046 368.137 41 369.241 41V37ZM358.251 41C359.355 41 360.251 40.1046 360.251 39C360.251 37.8954 359.355 37 358.251 37V41ZM347.26 37C346.156 37 345.26 37.8954 345.26 39C345.26 40.1046 346.156 41 347.26 41V37ZM336.27 41C337.374 41 338.27 40.1046 338.27 39C338.27 37.8954 337.374 37 336.27 37V41ZM325.279 37C324.175 37 323.279 37.8954 323.279 39C323.279 40.1046 324.175 41 325.279 41V37ZM314.289 41C315.393 41 316.289 40.1046 316.289 39C316.289 37.8954 315.393 37 314.289 37V41ZM303.298 37C302.193 37 301.298 37.8954 301.298 39C301.298 40.1046 302.193 41 303.298 41V37ZM292.307 41C293.412 41 294.307 40.1046 294.307 39C294.307 37.8954 293.412 37 292.307 37V41ZM281.317 37C280.212 37 279.317 37.8954 279.317 39C279.317 40.1046 280.212 41 281.317 41V37ZM270.326 41C271.431 41 272.326 40.1046 272.326 39C272.326 37.8954 271.431 37 270.326 37V41ZM259.336 37C258.231 37 257.336 37.8954 257.336 39C257.336 40.1046 258.231 41 259.336 41V37ZM248.345 41C249.45 41 250.345 40.1046 250.345 39C250.345 37.8954 249.45 37 248.345 37V41ZM237.355 37C236.25 37 235.355 37.8954 235.355 39C235.355 40.1046 236.25 41 237.355 41V37ZM226.364 41C227.469 41 228.364 40.1046 228.364 39C228.364 37.8954 227.469 37 226.364 37V41ZM215.374 37C214.269 37 213.374 37.8954 213.374 39C213.374 40.1046 214.269 41 215.374 41V37ZM204.383 41C205.488 41 206.383 40.1046 206.383 39C206.383 37.8954 205.488 37 204.383 37V41ZM193.393 37C192.288 37 191.393 37.8954 191.393 39C191.393 40.1046 192.288 41 193.393 41V37ZM182.402 41C183.506 41 184.402 40.1046 184.402 39C184.402 37.8954 183.506 37 182.402 37V41ZM171.411 37C170.307 37 169.411 37.8954 169.411 39C169.411 40.1046 170.307 41 171.411 41V37ZM160.421 41C161.525 41 162.421 40.1046 162.421 39C162.421 37.8954 161.525 37 160.421 37V41ZM149.43 37C148.326 37 147.43 37.8954 147.43 39C147.43 40.1046 148.326 41 149.43 41V37ZM138.44 41C139.544 41 140.44 40.1046 140.44 39C140.44 37.8954 139.544 37 138.44 37V41ZM127.449 37C126.344 37 125.449 37.8954 125.449 39C125.449 40.1046 126.344 41 127.449 41V37ZM116.458 41C117.563 41 118.458 40.1046 118.458 39C118.458 37.8954 117.563 37 116.458 37V41ZM105.468 37C104.363 37 103.468 37.8954 103.468 39C103.468 40.1046 104.363 41 105.468 41V37ZM94.4772 41C95.5817 41 96.4772 40.1046 96.4772 39C96.4772 37.8954 95.5817 37 94.4772 37V41ZM83.4866 37C82.382 37 81.4866 37.8954 81.4866 39C81.4866 40.1046 82.382 41 83.4866 41V37ZM72.496 41C73.6006 41 74.496 40.1046 74.496 39C74.496 37.8954 73.6006 37 72.496 37V41ZM1232 37H1226.5V41H1232V37ZM1215.51 37H1204.52V41H1215.51V37ZM1193.53 37H1182.54V41H1193.53V37ZM1171.55 37H1160.56V41L1171.55 41V37ZM1149.57 37H1138.58V41H1149.57V37ZM1127.59 37H1116.6V41H1127.59V37ZM1105.61 37H1094.62V41H1105.61V37ZM1083.63 37H1072.64V41H1083.63V37ZM1061.65 37L1050.66 37V41L1061.65 41V37ZM1039.67 37H1028.67V41H1039.67V37ZM1017.68 37H1006.69V41H1017.68V37ZM995.703 37H984.712V41H995.703V37ZM973.722 37H962.731V41H973.722V37ZM951.741 37H940.75V41H951.741V37ZM929.759 37H918.769V41H929.759V37ZM907.778 37H896.788V41H907.778V37ZM885.797 37H874.807V41H885.797V37ZM863.816 37H852.825V41H863.816V37ZM841.835 37H830.844V41H841.835V37ZM819.854 37H808.863V41H819.854V37ZM797.873 37H786.882V41H797.873V37ZM775.891 37H764.901V41H775.891V37ZM753.91 37H742.92V41H753.91V37ZM731.929 37H720.939V41H731.929V37ZM709.948 37L698.957 37V41L709.948 41V37ZM687.967 37H676.976V41H687.967V37ZM665.986 37H654.995V41H665.986V37ZM644.005 37H633.014V41H644.005V37ZM622.024 37H611.033V41H622.024V37ZM600.043 37L589.052 37V41L600.043 41V37ZM578.061 37H567.071V41H578.061V37ZM556.08 37H545.09V41H556.08V37ZM534.099 37H523.109V41H534.099V37ZM512.118 37H501.128V41H512.118V37ZM490.137 37H479.147V41H490.137V37ZM468.156 37H457.166V41H468.156V37ZM446.175 37H435.184V41H446.175V37ZM424.194 37H413.203V41H424.194V37ZM402.213 37H391.222V41H402.213V37ZM380.232 37H369.241V41H380.232V37ZM358.251 37H347.26V41H358.251V37ZM336.27 37H325.279V41H336.27V37ZM314.289 37H303.298V41H314.289V37ZM292.307 37H281.317V41H292.307V37ZM270.326 37H259.336V41H270.326V37ZM248.345 37L237.355 37V41L248.345 41V37ZM226.364 37H215.374V41H226.364V37ZM204.383 37H193.393V41H204.383V37ZM182.402 37H171.411V41H182.402V37ZM160.421 37H149.43V41H160.421V37ZM138.44 37L127.449 37V41L138.44 41V37ZM116.458 37H105.468V41H116.458V37ZM94.4772 37H83.4866V41H94.4772V37ZM72.496 37H67V41H72.496V37Z" fill="url(#paint1_linear_887_15996)"/>
<defs>
<radialGradient id="paint0_radial_887_15996" cx="0" cy="0" r="1" gradientUnits="userSpaceOnUse" gradientTransform="translate(39 39) rotate(90) scale(32.5)">
<stop stop-color="#FC9F9F"/>
<stop offset="1" stop-color="white" stop-opacity="0"/>
</radialGradient>
<linearGradient id="paint1_linear_887_15996" x1="1302.55" y1="38.4999" x2="67.006" y2="41.7726" gradientUnits="userSpaceOnUse">
<stop stop-color="#E99953" stop-opacity="0"/>
<stop offset="1" stop-color="#FD9B13"/>
</linearGradient>
</defs>
</svg>
