<svg width="22" height="213" viewBox="0 0 22 213" fill="none" xmlns="http://www.w3.org/2000/svg">
<path d="M0.333342 202C0.333342 207.891 5.10897 212.667 11 212.667C16.891 212.667 21.6667 207.891 21.6667 202C21.6667 196.109 16.891 191.333 11 191.333C5.10897 191.333 0.333342 196.109 0.333342 202ZM9 5.61111C9 6.71568 9.89543 7.61111 11 7.61111C12.1046 7.61111 13 6.71568 13 5.61111L9 5.61111ZM13 16.8333C13 15.7288 12.1046 14.8333 11 14.8333C9.89543 14.8333 9 15.7288 9 16.8333L13 16.8333ZM9 28.0556C9 29.1601 9.89543 30.0556 11 30.0556C12.1046 30.0556 13 29.1601 13 28.0556L9 28.0556ZM13 39.2778C13 38.1732 12.1046 37.2778 11 37.2778C9.89543 37.2778 9 38.1732 9 39.2778L13 39.2778ZM9 50.5C9 51.6046 9.89543 52.5 11 52.5C12.1046 52.5 13 51.6046 13 50.5L9 50.5ZM13 61.7222C13 60.6177 12.1046 59.7222 11 59.7222C9.89543 59.7222 9 60.6177 9 61.7222L13 61.7222ZM9 72.9444C9 74.049 9.89543 74.9444 11 74.9444C12.1046 74.9444 13 74.049 13 72.9444L9 72.9444ZM13 84.1667C13 83.0621 12.1046 82.1667 11 82.1667C9.89543 82.1667 9 83.0621 9 84.1667L13 84.1667ZM9 95.3889C9 96.4935 9.89543 97.3889 11 97.3889C12.1046 97.3889 13 96.4935 13 95.3889L9 95.3889ZM13 106.611C13 105.507 12.1046 104.611 11 104.611C9.89544 104.611 9 105.507 9 106.611L13 106.611ZM9.00001 117.833C9.00001 118.938 9.89544 119.833 11 119.833C12.1046 119.833 13 118.938 13 117.833L9.00001 117.833ZM13 129.056C13 127.951 12.1046 127.056 11 127.056C9.89544 127.056 9.00001 127.951 9.00001 129.056L13 129.056ZM9.00001 140.278C9.00001 141.382 9.89544 142.278 11 142.278C12.1046 142.278 13 141.382 13 140.278L9.00001 140.278ZM13 151.5C13 150.395 12.1046 149.5 11 149.5C9.89544 149.5 9.00001 150.395 9.00001 151.5L13 151.5ZM9.00001 162.722C9.00001 163.827 9.89544 164.722 11 164.722C12.1046 164.722 13 163.827 13 162.722L9.00001 162.722ZM13 173.944C13 172.84 12.1046 171.944 11 171.944C9.89544 171.944 9.00001 172.84 9.00001 173.944L13 173.944ZM9.00001 185.167C9.00001 186.271 9.89544 187.167 11 187.167C12.1046 187.167 13 186.271 13 185.167L9.00001 185.167ZM13 196.389C13 195.284 12.1046 194.389 11 194.389C9.89544 194.389 9.00001 195.284 9.00001 196.389L13 196.389ZM9 8.74228e-08L9 5.61111L13 5.61111L13 -8.74228e-08L9 8.74228e-08ZM9 16.8333L9 28.0556L13 28.0556L13 16.8333L9 16.8333ZM9 39.2778L9 50.5L13 50.5L13 39.2778L9 39.2778ZM9 61.7222L9 72.9444L13 72.9444L13 61.7222L9 61.7222ZM9 84.1667L9 95.3889L13 95.3889L13 84.1667L9 84.1667ZM9 106.611L9.00001 117.833L13 117.833L13 106.611L9 106.611ZM9.00001 129.056L9.00001 140.278L13 140.278L13 129.056L9.00001 129.056ZM9.00001 151.5L9.00001 162.722L13 162.722L13 151.5L9.00001 151.5ZM9.00001 173.944L9.00001 185.167L13 185.167L13 173.944L9.00001 173.944ZM9.00001 196.389L9.00001 202L13 202L13 196.389L9.00001 196.389Z" fill="url(#paint0_linear_865_15421)"/>
<defs>
<linearGradient id="paint0_linear_865_15421" x1="10.4999" y1="-12.2329" x2="10.5983" y2="202" gradientUnits="userSpaceOnUse">
<stop stop-color="#E99953" stop-opacity="0"/>
<stop offset="1" stop-color="#FD9B13"/>
</linearGradient>
</defs>
</svg>
